<?xml version="1.0" encoding="UTF-8" standalone="no"?>
<!-- Created with Inkscape (http://www.inkscape.org/) -->
<svg xmlns:rdf="http://www.w3.org/1999/02/22-rdf-syntax-ns#" xmlns="http://www.w3.org/2000/svg" xmlns:cc="http://creativecommons.org/ns#" xmlns:xlink="http://www.w3.org/1999/xlink" xmlns:dc="http://purl.org/dc/elements/1.1/" xmlns:svg="http://www.w3.org/2000/svg" xmlns:inkscape="http://www.inkscape.org/namespaces/inkscape" xmlns:sodipodi="http://sodipodi.sourceforge.net/DTD/sodipodi-0.dtd" xmlns:ns1="http://sozi.baierouge.fr" id="svg2" viewBox="0 0 59.269 52.126" version="1.2" inkscape:version="0.91 r13725">
  <defs id="defs4">
    <filter id="filter3967-58-6" color-interpolation-filters="sRGB">
      <feGaussianBlur id="feGaussianBlur3969-7-6" stdDeviation="2.7953664"/>
    </filter>
    <radialGradient id="radialGradient9524" gradientUnits="userSpaceOnUse" cy="676.79" cx="508.65" gradientTransform="matrix(1 0 0 .57040 -2 274.75)" r="86.402">
      <stop id="stop10771-13-8" style="stop-color:#164a0e" offset="0"/>
      <stop id="stop10773-6-0" style="stop-color:#164a0e;stop-opacity:0" offset="1"/>
    </radialGradient>
  </defs>
  <g id="layer2" transform="translate(-286.82 -699.93)">
    <g id="g9492" transform="matrix(.10273 0 0 .10273 276.41 682.36)">
      <path id="path9494" style="filter:url(#filter3967-58-6);fill:url(#radialGradient9524)" d="m420.75 672.71v-18.688l82.055-42.01 89.748 35.306v18.414l-93.012 43.848-78.792-36.871z" transform="matrix(3.115 0 0 3.115 -1188.5 -1552.8)"/>
      <g id="g9496" style="color:#000000;fill-opacity:.66129;stroke:#000000;stroke-width:2;fill:#696ba7">
        <path id="path9498" style="stroke:#000000;fill-rule:evenodd;fill:#feffff" d="m389.26 172.05 241.06 113.64v214.21l-241.06-113.65z"/>
        <path id="path9500" style="stroke:#000000;fill-opacity:1;fill:#464f7a" d="m143.37 287.97v214.21l245.89-115.92v-214.21z"/>
        <path id="path9502" style="stroke:#000000;fill-rule:evenodd;fill:#d2d2e4" d="m143.37 502.17 241.06 113.65 245.89-115.92-241.06-113.65z"/>
        <path id="path9504" style="stroke:#000000;fill-opacity:1;fill:#4f5682" d="m143.37 287.97 241.06 113.64 245.89-115.92-241.06-113.64z"/>
        <path id="path9506" style="stroke:#000000;fill-opacity:1;fill:#7b7bac" d="m384.43 401.61v214.21l245.89-115.92v-214.21z"/>
        <path id="path9508" style="stroke:#000000;fill-opacity:1;fill:#464f7a" d="m143.37 287.97 241.06 113.64v214.21l-241.06-113.64z"/>
      </g>
      <path id="path9510" style="fill:#f0f0f0" d="m350.68 212.66 38.514 5.6218 38.514 5.6218-16.367 5.3307 40.055 21.107-26.52 10.44-44.055-21.607-16.367 5.3308-6.8691-15.929z"/>
      <path id="path9512" style="fill:#f0f0f0" d="m521.91 323.32-6.8691-15.929-6.8691-15.929-16.367 5.3308-46.555-22.107-26.02 9.9405 42.055 22.107-16.367 5.3307 38.514 5.6218z"/>
      <path id="path9514" style="fill:#f0f0f0" d="m266.1 251.03 38.514 5.6218 38.514 5.6218-16.367 5.3307 41.555 21.107-25.52 10.94-46.555-22.107-16.367 5.3308-6.8691-15.929z"/>
      <path id="path9516" style="fill:#f0f0f0" d="m439.74 359.85-6.8691-15.929-6.8691-15.929-16.367 5.3308-46.555-22.107-26.52 9.9405 42.555 22.107-16.367 5.3307 38.514 5.6218z"/>
      <path id="path9518" style="fill:#e5e5e5" d="m209.66 346.95-30.9-14.817-0.0864-12.596-19.002 13.847 19.002 36.1-0.0904-10.998 31.076 14.463 110.46 180.28 31.219 14.718-0.0789 10.768 19.002-13.847-19.002-36.1 0.0789 13.179-31.219-14.718z"/>
      <path id="path9520" style="fill:#e5e5e5" d="m320.12 425.02 31.219 14.718-0.0789 10.768 19.002-13.847-19.002-36.1 0.0789 13.179-31.219-14.718-110.46 76.134-31.43-14.706-0.0864-12.596-19.002 13.847 19.002 36.1-0.0904-10.998 31.607 14.352z"/>
    </g>
  </g>
  <metadata>
    <rdf:RDF>
      <cc:Work>
        <dc:format>image/svg+xml</dc:format>
        <dc:type rdf:resource="http://purl.org/dc/dcmitype/StillImage"/>
        <cc:license rdf:resource="http://creativecommons.org/licenses/publicdomain/"/>
        <dc:publisher>
          <cc:Agent rdf:about="http://openclipart.org/">
            <dc:title>Openclipart</dc:title>
          </cc:Agent>
        </dc:publisher>
        <dc:title>Layer 3 switch</dc:title>
        <dc:date>2012-07-23T10:59:12</dc:date>
        <dc:description>If you need to include a multilayer switch in your network diagram, this should come in handy.</dc:description>
        <dc:source>https://openclipart.org/detail/171277/layer-3-switch-by-owoc-171277</dc:source>
        <dc:creator>
          <cc:Agent>
            <dc:title>owoc</dc:title>
          </cc:Agent>
        </dc:creator>
        <dc:subject>
          <rdf:Bag>
            <rdf:li>Ethernet</rdf:li>
            <rdf:li>IP</rdf:li>
            <rdf:li>L3</rdf:li>
            <rdf:li>LAN</rdf:li>
            <rdf:li>TCP/IP</rdf:li>
            <rdf:li>WAN</rdf:li>
            <rdf:li>layer 3</rdf:li>
            <rdf:li>network</rdf:li>
            <rdf:li>schema</rdf:li>
            <rdf:li>switch</rdf:li>
          </rdf:Bag>
        </dc:subject>
      </cc:Work>
      <cc:License rdf:about="http://creativecommons.org/licenses/publicdomain/">
        <cc:permits rdf:resource="http://creativecommons.org/ns#Reproduction"/>
        <cc:permits rdf:resource="http://creativecommons.org/ns#Distribution"/>
        <cc:permits rdf:resource="http://creativecommons.org/ns#DerivativeWorks"/>
      </cc:License>
    </rdf:RDF>
  </metadata>
</svg>
